<svg width="24" height="24" viewBox="0 0 24 24" fill="none" xmlns="http://www.w3.org/2000/svg">
<path d="M16.9993 16.5833C17.2826 16.7958 17.507 17.0769 17.6514 17.4002C17.7958 17.7234 17.8554 18.0782 17.8247 18.4309C17.7939 18.7836 17.6738 19.1226 17.4756 19.416C17.2774 19.7094 17.0077 19.9474 16.692 20.1077C16.3763 20.2679 16.025 20.345 15.6712 20.3318C15.3174 20.3185 14.9728 20.2153 14.67 20.0319C14.3671 19.8485 14.116 19.5909 13.9404 19.2835C13.7647 18.9761 13.6703 18.629 13.666 18.275V12M6.99935 12H5.33268C4.89065 12 4.46673 11.8244 4.15417 11.5118C3.84161 11.1993 3.66602 10.7754 3.66602 10.3333V6.16667C3.66602 5.72464 3.84161 5.30072 4.15417 4.98816C4.46673 4.67559 4.89065 4.5 5.33268 4.5H18.666C19.108 4.5 19.532 4.67559 19.8445 4.98816C20.1571 5.30072 20.3327 5.72464 20.3327 6.16667V10.3333C20.3327 10.7754 20.1571 11.1993 19.8445 11.5118C19.532 11.8244 19.108 12 18.666 12H16.9993M6.99935 8.66667H16.9993M7.49935 14.9767C7.3031 15.169 7.15746 15.4069 7.0754 15.6692C6.99334 15.9314 6.97739 16.2099 7.02899 16.4798C7.08059 16.7498 7.19813 17.0027 7.37114 17.2162C7.54415 17.4297 7.76727 17.5971 8.02063 17.7035C8.27399 17.81 8.54973 17.8521 8.8233 17.8261C9.09688 17.8002 9.35979 17.707 9.58865 17.5549C9.8175 17.4028 10.0052 17.1964 10.135 16.9542C10.2648 16.712 10.3327 16.4415 10.3327 16.1667V12" stroke="white" stroke-width="1.66667" stroke-linecap="round" stroke-linejoin="round"/>
</svg>
